<svg xmlns="http://www.w3.org/2000/svg" width="276" height="71.555" viewBox="0 0 276 71.555">
  <g id="Group_8" data-name="Group 8" transform="translate(-4446 575.896)">
    <g id="Group_7" data-name="Group 7" transform="translate(4446 -575.896)">
      <rect id="Rectangle_24" data-name="Rectangle 24" width="276" height="71.555" transform="translate(0 0)" fill="none"/>
      <g id="Group_3" data-name="Group 3" transform="translate(1.913 13.256)">
        <path id="Path_2" data-name="Path 2" d="M172.024,287.361v.3c0,1.379-1.382,2.02-2.908,2.02-2.362,0-3.544-2.316-5.317-5.666-1.926-3.6-4.681-8.916-9.019-8.916-.785,0-2.413-.444-2.413-1.678a3.4,3.4,0,0,1,.543-1.773,5.808,5.808,0,0,0,2.857.789,7.489,7.489,0,0,0,7.688-7.342c0-3.794-1.978-7.98-8.723-7.98a13.8,13.8,0,0,0-6.01,1.379V284.5a2.709,2.709,0,0,0,2.76,3.005H153.3v1.479H140.888V287.51h1.426c1.877,0,2.808-1.034,2.808-3.005V259.278c0-1.38-1.083-2.217-2.808-2.217h-1.426v-1.428h4.73c3.843,0,5.714-.738,9.413-.738,8.523,0,12.314,4.432,12.314,9.75,0,5.225-4.537,8.823-7.391,9.217,2.659.639,4.877,4.48,6.355,7.143C169.315,286.476,170.1,287.361,172.024,287.361Z" transform="translate(-140.888 -254.351)" fill="#0e307e"/>
        <path id="Path_3" data-name="Path 3" d="M229.948,276.9v1.28c-1.334,0-2.562.691-3.348,3.2-.934,2.955-3.5,10.3-6.606,19.018-1.917,5.467-4.383,10.148-9.059,10.148-3.95,0-5.475-2.314-5.475-4.137,0-2.414,2.713-2.761,2.713-2.761,0,1.924.341,4.83,3.1,4.83,3.347,0,4.831-5.913,5.767-8.325-1.678,0-3.211-1.332-4.145-3.4-1.725-3.841-3.89-10.543-5.518-14.878-.588-1.575-1.425-3.7-3.691-3.7,0-.934,1.23-1.578,2.607-1.578,2.218,0,3.054,1.232,3.8,3.154.978,2.612,4.525,13.748,5.514,16.063.741,1.774,1.577,2.166,2.167,2.316,2.067-5.57,5.816-16.26,5.816-18.228,0-1.085-.69-1.728-3.844-1.728V276.9Z" transform="translate(-173.196 -265.518)" fill="#0e307e"/>
        <path id="Path_4" data-name="Path 4" d="M282.1,283.928c0,1.723.841,3.2,2.512,3.2h1.48v1.283h-3.645a3.7,3.7,0,0,1-3.747-3.943V275.2c0-4.925-2.512-8.471-7.485-8.471-5.325,0-8.131,5.122-8.131,10.345s3.007,9.8,7.638,9.8a6.361,6.361,0,0,0,4.68-1.923,3.041,3.041,0,0,1,.738,1.578c0,2.267-4.284,2.413-5.766,2.413-6.254,0-10.788-5.367-10.788-11.969,0-5.667,3.007-12.369,11.629-12.369,3.252,0,6.3,1.332,7.485,3.351v-9.9c0-1.233-.1-3.005-2.56-3.005h-1.281v-1.282H278.6c2.662,0,3.5,1.331,3.5,3.942Z" transform="translate(-201.951 -253.774)" fill="#0e307e"/>
        <path id="Path_5" data-name="Path 5" d="M328.191,289.361a3.139,3.139,0,0,1-.592-1.676c0-1.528,2.265-1.528,4.337-1.528h6.013c1.029,0,1.525-.3,1.525-1.329,0-4.139-2.167-7.984-7-7.984-5.766,0-8.424,5.42-8.424,10.84,0,4.926,3.154,9.9,8.082,9.9a8.236,8.236,0,0,0,7.738-4.334,2.576,2.576,0,0,1,1.525,1.87c0,2.168-2.811,4.633-9.262,4.633-8.13,0-11.482-6.553-11.482-12.072,0-7.291,4.048-13.007,11.974-13.007a9.7,9.7,0,0,1,10.1,10.1c0,3.6-1.229,3.6-4.189,3.6C330.853,288.375,329.767,288.375,328.191,289.361Z" transform="translate(-233.366 -264.528)" fill="#0e307e"/>
        <path id="Path_6" data-name="Path 6" d="M392.035,280.324c0,1.232-.693,2.712-2.119,2.712a1.374,1.374,0,0,1-1.328-.643,3.594,3.594,0,0,0,.589-1.822,2.672,2.672,0,0,0-2.907-2.858c-3.6,0-5.866,4.584-5.866,9.658v8.081c0,1.379.395,2.955,2.169,2.955h.745v1.283h-9.712v-1.283h1.33c1.824,0,2.218-1.674,2.218-2.66V280.721c0-2.317-1.133-3.008-2.414-3.008h-1.134v-1.28h3.5c2.122,0,3.155,1.183,3.3,3.3a7.077,7.077,0,0,1,6.063-4.04C390.5,275.7,392.035,277.763,392.035,280.324Z" transform="translate(-260.608 -265.051)" fill="#0e307e"/>
        <path id="Path_7" data-name="Path 7" d="M419.2,263.37c0-3.8,3.643-8.375,10.392-8.375,6.848,0,10.1,3.252,10.1,6.6,0,3.058-1.92,3.844-3.253,3.844,0-6.11-2.759-8.177-6.848-8.177-3.794,0-6.8,2.608-6.8,5.911,0,8.523,18.034,7.2,18.034,17.885,0,4.531-4.385,8.77-11.876,8.77-7.636,0-10.987-4.039-10.987-6.8a3.379,3.379,0,0,1,2.665-3.548s.686,7.834,8.866,7.834c6.6,0,7.735-4.286,7.735-5.865,0-1.672-.2-4.138-8.178-7.486C420.184,270.22,419.2,266.818,419.2,263.37Z" transform="translate(-283.429 -254.402)" fill="#0e307e"/>
        <path id="Path_8" data-name="Path 8" d="M481.052,283.782s1.775.248,1.775,1.676c0,2.122-2.021,3.548-5.175,3.548-3.106,0-6.254-1.477-6.254-7.783V257.915c0-2.165-1.284-2.757-2.564-2.757h-1.284v-1.186h3.894a3.009,3.009,0,0,1,3.2,3.255v24.338c0,3,.942,5.222,3.156,5.222A3.357,3.357,0,0,0,481.052,283.782Z" transform="translate(-308.937 -253.876)" fill="#0e307e"/>
        <path id="Path_9" data-name="Path 9" d="M524.981,297.884v1.283h-2.515c-3.937,0-4.039-2.712-4.039-4.091v-7.538h-3.2c-6.063,0-9.511,1.379-9.511,5.373a4.443,4.443,0,0,0,4.633,4.58,5.527,5.527,0,0,0,4.679-2.217,1.7,1.7,0,0,1,1.035,1.381c0,1.034-.5,2.856-5.865,2.856-3.056,0-7.933-1.675-7.933-6.65,0-6.062,5.818-7.438,13.007-7.438h3.154V283.1c0-2.214-.095-6.3-5.565-6.3-4.831,0-6.206,3.3-6.206,5.665a2.472,2.472,0,0,1-2.416-2.61c0-3.007,3.7-5.173,8.622-5.173,5.425,0,8.871,2.068,8.871,8.421v11.089c0,2.316.638,3.7,2.511,3.7Z" transform="translate(-326.797 -264.528)" fill="#0e307e"/>
        <path id="Path_10" data-name="Path 10" d="M578.35,283.928c0,1.723.84,3.2,2.515,3.2h1.475v1.283H578.7a3.692,3.692,0,0,1-3.743-3.943V275.2c0-4.925-2.518-8.471-7.491-8.471-5.323,0-8.125,5.122-8.125,10.345s3,9.8,7.631,9.8a6.364,6.364,0,0,0,4.684-1.923,3.047,3.047,0,0,1,.734,1.578c0,2.267-4.282,2.413-5.763,2.413-6.257,0-10.791-5.367-10.791-11.969,0-5.667,3.01-12.369,11.629-12.369,3.251,0,6.306,1.332,7.491,3.351v-9.9c0-1.233-.1-3.005-2.567-3.005h-1.28v-1.282h3.745c2.666,0,3.5,1.331,3.5,3.942Z" transform="translate(-354.354 -253.774)" fill="#0e307e"/>
        <path id="Path_11" data-name="Path 11" d="M620.763,289.361a3.163,3.163,0,0,1-.592-1.676c0-1.528,2.263-1.528,4.336-1.528h6.013c1.032,0,1.525-.3,1.525-1.329,0-4.139-2.169-7.984-7-7.984-5.762,0-8.424,5.42-8.424,10.84,0,4.926,3.156,9.9,8.082,9.9a8.22,8.22,0,0,0,7.733-4.334,2.578,2.578,0,0,1,1.531,1.87c0,2.168-2.809,4.633-9.264,4.633-8.127,0-11.481-6.553-11.481-12.072,0-7.291,4.043-13.007,11.974-13.007a9.7,9.7,0,0,1,10.1,10.1c0,3.6-1.229,3.6-4.182,3.6C623.421,288.375,622.338,288.375,620.763,289.361Z" transform="translate(-383.878 -264.528)" fill="#0e307e"/>
      </g>
      <g id="Group_4" data-name="Group 4" transform="translate(250.025 1.119)">
        <path id="Path_12" data-name="Path 12" d="M693.675,246.91c0,.067.019.067,0,0Z" transform="translate(-673.377 -238.106)" fill="#5d8bf2"/>
        <path id="Path_13" data-name="Path 13" d="M663.963,228.778a12.091,12.091,0,1,0,12.09,12.094A12.091,12.091,0,0,0,663.963,228.778Zm10.164,15.359c.005-.122.01-.24.01-.363a4.1,4.1,0,0,0-1.484-3.131A7.962,7.962,0,0,0,669.361,239a20.34,20.34,0,0,1-2.363-.5,1.96,1.96,0,0,1-1.366-1.916c0-1.914,1.311-2.7,3-2.7a6.565,6.565,0,0,1,5.433,3.177,10.778,10.778,0,0,1,.069,7.422C674.137,244.369,674.133,244.254,674.128,244.137Zm-2.839-11.2a1.152,1.152,0,0,1-.462.111c-1.349,0-1.5-.45-3.119-.45a4.871,4.871,0,0,0-4.813,5.188,3.949,3.949,0,0,0,2.1,3.5,8.37,8.37,0,0,0,2.411.978c.438.111.849.225,1.217.343a8.173,8.173,0,0,1,1.965.843,2.986,2.986,0,0,1,.788.71,3.417,3.417,0,0,1,.868,2.235c0,2.175-2.2,3.933-4.905,3.933-4.01,0-5.09-3.367-5.336-5.216-.259-1.962-.816-3.34-2.217-3.981a5.948,5.948,0,0,0-2.492-.486,3.765,3.765,0,0,0,4.016-3.839c0-2.064-1.711-3.7-4.56-3.974a10.8,10.8,0,0,1,14.537.107Zm-18.123,7.932a10.757,10.757,0,0,1,3.075-7.549,3.688,3.688,0,0,1,1.819,3.579c0,1.512-.112,2.407-.52,2.923a2.863,2.863,0,0,1-1.7,1.01c1.8.089,2.647.633,2.849,2.734,0,0,.064,3.646,2.309,5.6a8.214,8.214,0,0,0,5.418,1.884,9.218,9.218,0,0,0,1.439-.114,10.8,10.8,0,0,1-14.686-10.071Z" transform="translate(-651.872 -228.778)" fill="#5d8bf2"/>
      </g>
      <g id="Group_5" data-name="Group 5" transform="translate(58.754 58.077)">
        <path id="Path_14" data-name="Path 14" d="M257.951,346.637h2.7c2.04,0,4.2.3,4.2,2.9a2.754,2.754,0,0,1-2.64,2.785l3,4.856h-1.534l-2.859-4.739H259.2v4.739h-1.246Zm1.246,4.646h1.124c1.383,0,3.184,0,3.184-1.742,0-1.521-1.328-1.741-2.549-1.741H259.2Z" transform="translate(-257.951 -346.369)" fill="#5d8bf2"/>
        <path id="Path_15" data-name="Path 15" d="M276.693,346.637h6.626V347.8h-5.377v3.3h5.021v1.162h-5.021v3.754h5.647v1.161h-6.9Z" transform="translate(-267.593 -346.369)" fill="#5d8bf2"/>
        <path id="Path_16" data-name="Path 16" d="M301.619,348.528a3.234,3.234,0,0,0-2.637-1.284,4.194,4.194,0,0,0-4.019,4.381,4.1,4.1,0,0,0,4.019,4.38,3.719,3.719,0,0,0,3.057-1.477l.936.792a4.677,4.677,0,0,1-3.992,1.846,5.544,5.544,0,0,1,0-11.082,4.557,4.557,0,0,1,3.724,1.652Z" transform="translate(-276.301 -346.084)" fill="#5d8bf2"/>
        <path id="Path_17" data-name="Path 17" d="M316.471,346.637h2.7c2.04,0,4.2.3,4.2,2.9a2.751,2.751,0,0,1-2.634,2.785l2.991,4.856h-1.531l-2.859-4.739h-1.611v4.739h-1.25Zm1.25,4.646h1.116c1.388,0,3.189,0,3.189-1.742,0-1.521-1.326-1.741-2.546-1.741h-1.76Z" transform="translate(-288.056 -346.369)" fill="#5d8bf2"/>
        <path id="Path_18" data-name="Path 18" d="M343.075,353.159c0,2.295-1.073,4.292-3.979,4.292s-3.974-2-3.974-4.292v-6.522h1.251v6.344c0,1.7.625,3.309,2.722,3.309s2.728-1.609,2.728-3.309v-6.344h1.251Z" transform="translate(-297.652 -346.369)" fill="#5d8bf2"/>
        <path id="Path_19" data-name="Path 19" d="M356.808,346.637h1.253v10.544h-1.253Z" transform="translate(-308.807 -346.369)" fill="#5d8bf2"/>
        <path id="Path_20" data-name="Path 20" d="M370.641,347.8h-3.488v9.381H365.9V347.8h-3.485v-1.163h8.222Z" transform="translate(-311.694 -346.369)" fill="#5d8bf2"/>
        <path id="Path_21" data-name="Path 21" d="M382.384,346.637h1.864l3.573,8.268h.033l3.607-8.268h1.815v10.544h-1.251v-8.845h-.031l-3.787,8.845h-.755l-3.785-8.845h-.028v8.845h-1.253Z" transform="translate(-321.965 -346.369)" fill="#5d8bf2"/>
        <path id="Path_22" data-name="Path 22" d="M410.205,346.637h6.629V347.8h-5.379v3.3h5.023v1.162h-5.023v3.754H417.1v1.161h-6.9Z" transform="translate(-336.277 -346.369)" fill="#5d8bf2"/>
        <path id="Path_23" data-name="Path 23" d="M428.394,346.637h1.579l6.107,8.757h.032v-8.757h1.252v10.544h-1.581l-6.109-8.758h-.028v8.758h-1.253Z" transform="translate(-345.634 -346.369)" fill="#5d8bf2"/>
        <path id="Path_24" data-name="Path 24" d="M458.121,347.8h-3.489v9.381h-1.253V347.8h-3.485v-1.163h8.227Z" transform="translate(-356.695 -346.369)" fill="#5d8bf2"/>
        <path id="Path_25" data-name="Path 25" d="M482.609,348.214a2.189,2.189,0,0,0-1.919-.97c-1.1,0-2.251.52-2.251,1.772,0,.971.54,1.4,2.22,1.938,1.638.522,3.157,1.059,3.157,3.129,0,2.1-1.8,3.083-3.706,3.083a3.815,3.815,0,0,1-3.246-1.461l1.073-.875a2.551,2.551,0,0,0,2.25,1.175c1.071,0,2.294-.624,2.294-1.834,0-1.3-.881-1.519-2.759-2.143-1.486-.493-2.622-1.145-2.622-2.906,0-2.025,1.746-3.038,3.591-3.038a3.6,3.6,0,0,1,2.947,1.237Z" transform="translate(-370.569 -346.084)" fill="#5d8bf2"/>
        <path id="Path_26" data-name="Path 26" d="M495.445,346.637h3.128c1.939,0,3.7.684,3.7,2.889,0,2.309-1.967,2.917-3.458,2.917H496.7v4.739h-1.254Zm1.254,4.646h2.114c1.251,0,2.116-.566,2.116-1.742s-.865-1.741-2.116-1.741H496.7Z" transform="translate(-380.128 -346.369)" fill="#5d8bf2"/>
        <path id="Path_27" data-name="Path 27" d="M513.638,346.637h6.633V347.8h-5.382v3.3h5.02v1.162h-5.02v3.754h5.645v1.161h-6.9Z" transform="translate(-389.488 -346.369)" fill="#5d8bf2"/>
        <path id="Path_28" data-name="Path 28" d="M538.571,348.528a3.25,3.25,0,0,0-2.639-1.284,4.193,4.193,0,0,0-4.021,4.381,4.1,4.1,0,0,0,4.021,4.38,3.706,3.706,0,0,0,3.053-1.477l.937.792a4.674,4.674,0,0,1-3.99,1.846,5.544,5.544,0,0,1,0-11.082,4.561,4.561,0,0,1,3.724,1.652Z" transform="translate(-398.198 -346.084)" fill="#5d8bf2"/>
        <path id="Path_29" data-name="Path 29" d="M553.419,346.637h1.251v10.544h-1.251Z" transform="translate(-409.953 -346.369)" fill="#5d8bf2"/>
        <path id="Path_30" data-name="Path 30" d="M563.531,346.637h1.179l4.479,10.544H567.73l-1.073-2.59h-5.274l-1.088,2.59h-1.408Zm.567,1.607h-.032l-2.191,5.184h4.309Z" transform="translate(-412.766 -346.369)" fill="#5d8bf2"/>
        <path id="Path_31" data-name="Path 31" d="M582.987,346.637h1.253v9.383h4.824v1.161h-6.077Z" transform="translate(-425.164 -346.369)" fill="#5d8bf2"/>
        <path id="Path_32" data-name="Path 32" d="M598.321,346.637h1.252v10.544h-1.252Z" transform="translate(-433.052 -346.369)" fill="#5d8bf2"/>
        <path id="Path_33" data-name="Path 33" d="M610.512,348.214a2.184,2.184,0,0,0-1.919-.97c-1.1,0-2.245.52-2.245,1.772,0,.971.534,1.4,2.216,1.938,1.637.522,3.157,1.059,3.157,3.129,0,2.1-1.8,3.083-3.709,3.083a3.816,3.816,0,0,1-3.248-1.461l1.074-.875A2.556,2.556,0,0,0,608.091,356c1.069,0,2.292-.624,2.292-1.834,0-1.3-.884-1.519-2.758-2.143-1.491-.493-2.62-1.145-2.62-2.906,0-2.025,1.742-3.038,3.589-3.038a3.614,3.614,0,0,1,2.949,1.237Z" transform="translate(-436.368 -346.084)" fill="#5d8bf2"/>
        <path id="Path_34" data-name="Path 34" d="M629.214,347.8h-3.489v9.381h-1.25V347.8h-3.488v-1.163h8.227Z" transform="translate(-444.713 -346.369)" fill="#5d8bf2"/>
        <path id="Path_35" data-name="Path 35" d="M645.182,348.214a2.2,2.2,0,0,0-1.924-.97c-1.1,0-2.249.52-2.249,1.772,0,.971.536,1.4,2.219,1.938,1.637.522,3.158,1.059,3.158,3.129,0,2.1-1.8,3.083-3.711,3.083a3.809,3.809,0,0,1-3.243-1.461l1.066-.875A2.563,2.563,0,0,0,642.752,356c1.073,0,2.294-.624,2.294-1.834,0-1.3-.877-1.519-2.754-2.143-1.494-.493-2.621-1.145-2.621-2.906,0-2.025,1.739-3.038,3.586-3.038a3.616,3.616,0,0,1,2.95,1.237Z" transform="translate(-454.202 -346.084)" fill="#5d8bf2"/>
      </g>
    </g>
  </g>
</svg>
